<svg id="图层_1" data-name="图层 1" xmlns="http://www.w3.org/2000/svg" viewBox="0 0 511.33 81.53"><defs><style>.cls-1,.cls-3{fill-opacity:0;}.cls-1,.cls-10,.cls-2,.cls-3,.cls-5{stroke:#000;}.cls-1,.cls-2{stroke-width:2px;}.cls-10,.cls-2,.cls-5,.cls-7{fill:none;}.cls-2,.cls-3,.cls-5{stroke-linecap:square;}.cls-4,.cls-8,.cls-9{isolation:isolate;}.cls-4,.cls-6{font-size:12px;}.cls-4,.cls-9{font-family:ArialMT, Arial;}.cls-6{font-family:Gadugi;}.cls-7{stroke:#888;stroke-width:0.5px;stroke-dasharray:1 3;}.cls-9{font-size:11px;fill:#0041c4;}.cls-10{stroke-linecap:round;}</style></defs><rect class="cls-1" x="65.19" y="20.53" width="40" height="60"/><line class="cls-2" x1="46.15" y1="30.53" x2="65.19" y2="30.53"/><line class="cls-2" x1="105.19" y1="30.53" x2="153.5" y2="30.53"/><path class="cls-3" d="M74.26,59.64l6,6-6,6" transform="translate(-9.06 -15.11)"/><text class="cls-4" transform="translate(67.65 35.2)">D</text><text class="cls-4" transform="translate(93.19 34.53)">Q</text><line class="cls-2" x1="35.19" y1="50.53" x2="65.19" y2="50.53"/><line class="cls-2" x1="105.19" y1="70.53" x2="125.19" y2="70.53"/><line class="cls-5" x1="93.19" y1="64.03" x2="101.19" y2="64.03"/><text class="cls-4" transform="translate(92.78 74.53)">Q</text><text class="cls-6" transform="translate(0 55)">clk_2f</text><text class="cls-6" transform="translate(158.61 33.37)">clk_f</text><line class="cls-2" x1="125.19" y1="70.53" x2="125.19" y2="2.31"/><line class="cls-2" x1="47.08" y1="1.08" x2="125.19" y2="1.08"/><line class="cls-2" x1="45.19" y1="30.53" x2="45.19" y2="1"/><g id="waves_0" data-name="waves 0"><g id="lanes_0" data-name="lanes 0"><g id="gmarks_0" data-name="gmarks 0"><line id="gmark_0_0" data-name="gmark 0 0" class="cls-7" x1="270.83" y1="14.53" x2="270.83" y2="74.53"/><line id="gmark_1_0" data-name="gmark 1 0" class="cls-7" x1="310.83" y1="14.53" x2="310.83" y2="74.53"/><line id="gmark_2_0" data-name="gmark 2 0" class="cls-7" x1="350.83" y1="14.53" x2="350.83" y2="74.53"/><line id="gmark_3_0" data-name="gmark 3 0" class="cls-7" x1="390.83" y1="14.53" x2="390.83" y2="74.53"/><line id="gmark_4_0" data-name="gmark 4 0" class="cls-7" x1="430.83" y1="14.53" x2="430.83" y2="74.53"/><line id="gmark_5_0" data-name="gmark 5 0" class="cls-7" x1="470.83" y1="14.53" x2="470.83" y2="74.53"/><line id="gmark_6_0" data-name="gmark 6 0" class="cls-7" x1="510.83" y1="14.53" x2="510.83" y2="74.53"/></g><g id="wavelane_0_0" data-name="wavelane 0 0"><g class="cls-8"><text class="cls-9" transform="translate(232.1 34.53)">clk_2f</text></g><g id="wavelane_draw_0_0" data-name="wavelane draw 0 0"><g id="pclk"><path class="cls-10" d="M279.9,54.64v-20h20" transform="translate(-9.06 -15.11)"/></g><g id="nclk"><path class="cls-10" d="M299.9,34.64v20h20" transform="translate(-9.06 -15.11)"/></g><g id="pclk-2" data-name="pclk"><path class="cls-10" d="M319.9,54.64v-20h20" transform="translate(-9.06 -15.11)"/></g><g id="nclk-2" data-name="nclk"><path class="cls-10" d="M339.9,34.64v20h20" transform="translate(-9.06 -15.11)"/></g><g id="pclk-3" data-name="pclk"><path class="cls-10" d="M359.9,54.64v-20h20" transform="translate(-9.06 -15.11)"/></g><g id="nclk-3" data-name="nclk"><path class="cls-10" d="M379.9,34.64v20h20" transform="translate(-9.06 -15.11)"/></g><g id="pclk-4" data-name="pclk"><path class="cls-10" d="M399.9,54.64v-20h20" transform="translate(-9.06 -15.11)"/></g><g id="nclk-4" data-name="nclk"><path class="cls-10" d="M419.9,34.64v20h20" transform="translate(-9.06 -15.11)"/></g><g id="pclk-5" data-name="pclk"><path class="cls-10" d="M439.9,54.64v-20h20" transform="translate(-9.06 -15.11)"/></g><g id="nclk-5" data-name="nclk"><path class="cls-10" d="M459.9,34.64v20h20" transform="translate(-9.06 -15.11)"/></g><g id="pclk-6" data-name="pclk"><path class="cls-10" d="M479.9,54.64v-20h20" transform="translate(-9.06 -15.11)"/></g><g id="nclk-6" data-name="nclk"><path class="cls-10" d="M499.9,34.64v20h20" transform="translate(-9.06 -15.11)"/></g></g></g><g id="wavelane_1_0" data-name="wavelane 1 0"><g class="cls-8"><text class="cls-9" transform="translate(238.22 64.53)">clk_f</text></g><g id="wavelane_draw_1_0" data-name="wavelane draw 1 0"><g id="pclk-7" data-name="pclk"><path class="cls-10" d="M279.9,84.64v-20h20" transform="translate(-9.06 -15.11)"/></g><g id="_111" data-name="111"><path class="cls-10" d="M299.9,64.64h20" transform="translate(-9.06 -15.11)"/></g><g id="nclk-7" data-name="nclk"><path class="cls-10" d="M319.9,64.64v20h20" transform="translate(-9.06 -15.11)"/></g><g id="_000" data-name="000"><path class="cls-10" d="M339.9,84.64h20" transform="translate(-9.06 -15.11)"/></g><g id="pclk-8" data-name="pclk"><path class="cls-10" d="M359.9,84.64v-20h20" transform="translate(-9.06 -15.11)"/></g><g id="_111-2" data-name="111"><path class="cls-10" d="M379.9,64.64h20" transform="translate(-9.06 -15.11)"/></g><g id="nclk-8" data-name="nclk"><path class="cls-10" d="M399.9,64.64v20h20" transform="translate(-9.06 -15.11)"/></g><g id="_000-2" data-name="000"><path class="cls-10" d="M419.9,84.64h20" transform="translate(-9.06 -15.11)"/></g><g id="pclk-9" data-name="pclk"><path class="cls-10" d="M439.9,84.64v-20h20" transform="translate(-9.06 -15.11)"/></g><g id="_111-3" data-name="111"><path class="cls-10" d="M459.9,64.64h20" transform="translate(-9.06 -15.11)"/></g><g id="nclk-9" data-name="nclk"><path class="cls-10" d="M479.9,64.64v20h20" transform="translate(-9.06 -15.11)"/></g><g id="_000-3" data-name="000"><path class="cls-10" d="M499.9,84.64h20" transform="translate(-9.06 -15.11)"/></g></g></g></g></g></svg>