<?xml version="1.0" encoding="UTF-8"?><svg xmlns="http://www.w3.org/2000/svg" xmlns:xlink="http://www.w3.org/1999/xlink" fill-opacity="1" color-rendering="auto" color-interpolation="auto" text-rendering="auto" stroke="black" stroke-linecap="square" width="500" stroke-miterlimit="10" shape-rendering="auto" stroke-opacity="1" fill="black" stroke-dasharray="none" font-weight="normal" stroke-width="1" height="471" font-family="'Dialog'" font-style="normal" stroke-linejoin="miter" font-size="12px" stroke-dashoffset="0" image-rendering="auto">
  <!--Generated by ySVG 2.6-->
  <defs id="genericDefs"/>
  <g>
    <defs id="defs1">
      <clipPath clipPathUnits="userSpaceOnUse" id="clipPath1">
        <path d="M0 0 L500 0 L500 471 L0 471 L0 0 Z"/>
      </clipPath>
      <clipPath clipPathUnits="userSpaceOnUse" id="clipPath2">
        <path d="M644 163 L886 163 L886 390.964 L644 390.964 L644 163 Z"/>
      </clipPath>
    </defs>
    <g fill="white" text-rendering="geometricPrecision" shape-rendering="geometricPrecision" transform="scale(2.0661,2.0661) translate(-644,-163)" stroke="white">
      <rect x="644" width="242" height="228" y="163" clip-path="url(#clipPath2)" stroke="none"/>
    </g>
    <g fill="white" text-rendering="geometricPrecision" shape-rendering="geometricPrecision" transform="matrix(2.0661,0,0,2.0661,-1330.5785,-336.7769)" stroke="white">
      <ellipse rx="25.2236" ry="15.6554" clip-path="url(#clipPath2)" cx="764.7555" cy="194.5289" stroke="none"/>
    </g>
    <g text-rendering="geometricPrecision" stroke-miterlimit="1.45" shape-rendering="geometricPrecision" transform="matrix(2.0661,0,0,2.0661,-1330.5785,-336.7769)" stroke-linecap="butt">
      <ellipse rx="25.2236" fill="none" ry="15.6554" clip-path="url(#clipPath2)" cx="764.7555" cy="194.5289"/>
      <text x="754.7447" xml:space="preserve" y="199.2428" clip-path="url(#clipPath2)" font-family="sans-serif" stroke="none">000</text>
    </g>
    <g fill="white" text-rendering="geometricPrecision" shape-rendering="geometricPrecision" transform="matrix(2.0661,0,0,2.0661,-1330.5785,-336.7769)" stroke="white">
      <ellipse rx="25.2236" ry="15.6554" clip-path="url(#clipPath2)" cx="845.2027" cy="249.724" stroke="none"/>
    </g>
    <g text-rendering="geometricPrecision" stroke-miterlimit="1.45" shape-rendering="geometricPrecision" transform="matrix(2.0661,0,0,2.0661,-1330.5785,-336.7769)" stroke-linecap="butt">
      <ellipse rx="25.2236" fill="none" ry="15.6554" clip-path="url(#clipPath2)" cx="845.2027" cy="249.724"/>
      <text x="835.192" xml:space="preserve" y="254.4379" clip-path="url(#clipPath2)" font-family="sans-serif" stroke="none">001</text>
    </g>
    <g fill="white" text-rendering="geometricPrecision" shape-rendering="geometricPrecision" transform="matrix(2.0661,0,0,2.0661,-1330.5785,-336.7769)" stroke="white">
      <ellipse rx="25.2236" ry="15.6554" clip-path="url(#clipPath2)" cx="684.3082" cy="249.724" stroke="none"/>
    </g>
    <g text-rendering="geometricPrecision" stroke-miterlimit="1.45" shape-rendering="geometricPrecision" transform="matrix(2.0661,0,0,2.0661,-1330.5785,-336.7769)" stroke-linecap="butt">
      <ellipse rx="25.2236" fill="none" ry="15.6554" clip-path="url(#clipPath2)" cx="684.3082" cy="249.724"/>
      <text x="674.2975" xml:space="preserve" y="254.4379" clip-path="url(#clipPath2)" font-family="sans-serif" stroke="none">101</text>
    </g>
    <g fill="white" text-rendering="geometricPrecision" shape-rendering="geometricPrecision" transform="matrix(2.0661,0,0,2.0661,-1330.5785,-336.7769)" stroke="white">
      <ellipse rx="25.2236" ry="15.6554" clip-path="url(#clipPath2)" cx="764.7555" cy="250.9037" stroke="none"/>
    </g>
    <g stroke-linecap="butt" transform="matrix(2.0661,0,0,2.0661,-1330.5785,-336.7769)" fill="silver" text-rendering="geometricPrecision" shape-rendering="geometricPrecision" stroke="silver" stroke-miterlimit="1.45">
      <ellipse rx="25.2236" fill="none" ry="15.6554" clip-path="url(#clipPath2)" cx="764.7555" cy="250.9037"/>
      <text x="754.7447" xml:space="preserve" y="255.6176" clip-path="url(#clipPath2)" font-family="sans-serif" stroke="none">111</text>
    </g>
    <g fill="white" text-rendering="geometricPrecision" shape-rendering="geometricPrecision" transform="matrix(2.0661,0,0,2.0661,-1330.5785,-336.7769)" stroke="white">
      <ellipse rx="25.2236" ry="15.6554" clip-path="url(#clipPath2)" cx="845.2027" cy="304.9192" stroke="none"/>
    </g>
    <g text-rendering="geometricPrecision" stroke-miterlimit="1.45" shape-rendering="geometricPrecision" transform="matrix(2.0661,0,0,2.0661,-1330.5785,-336.7769)" stroke-linecap="butt">
      <ellipse rx="25.2236" fill="none" ry="15.6554" clip-path="url(#clipPath2)" cx="845.2027" cy="304.9192"/>
      <text x="835.192" xml:space="preserve" y="309.633" clip-path="url(#clipPath2)" font-family="sans-serif" stroke="none">010</text>
    </g>
    <g fill="white" text-rendering="geometricPrecision" shape-rendering="geometricPrecision" transform="matrix(2.0661,0,0,2.0661,-1330.5785,-336.7769)" stroke="white">
      <ellipse rx="25.2236" ry="15.6554" clip-path="url(#clipPath2)" cx="764.7555" cy="304.9192" stroke="none"/>
    </g>
    <g stroke-linecap="butt" transform="matrix(2.0661,0,0,2.0661,-1330.5785,-336.7769)" fill="silver" text-rendering="geometricPrecision" shape-rendering="geometricPrecision" stroke="silver" stroke-miterlimit="1.45">
      <ellipse rx="25.2236" fill="none" ry="15.6554" clip-path="url(#clipPath2)" cx="764.7555" cy="304.9192"/>
      <text x="754.7447" xml:space="preserve" y="309.633" clip-path="url(#clipPath2)" font-family="sans-serif" stroke="none">110</text>
    </g>
    <g fill="white" text-rendering="geometricPrecision" shape-rendering="geometricPrecision" transform="matrix(2.0661,0,0,2.0661,-1330.5785,-336.7769)" stroke="white">
      <ellipse rx="25.2236" ry="15.6554" clip-path="url(#clipPath2)" cx="684.3082" cy="304.9192" stroke="none"/>
    </g>
    <g text-rendering="geometricPrecision" stroke-miterlimit="1.45" shape-rendering="geometricPrecision" transform="matrix(2.0661,0,0,2.0661,-1330.5785,-336.7769)" stroke-linecap="butt">
      <ellipse rx="25.2236" fill="none" ry="15.6554" clip-path="url(#clipPath2)" cx="684.3082" cy="304.9192"/>
      <text x="674.2975" xml:space="preserve" y="309.633" clip-path="url(#clipPath2)" font-family="sans-serif" stroke="none">100</text>
    </g>
    <g fill="white" text-rendering="geometricPrecision" shape-rendering="geometricPrecision" transform="matrix(2.0661,0,0,2.0661,-1330.5785,-336.7769)" stroke="white">
      <ellipse rx="25.2236" ry="15.6554" clip-path="url(#clipPath2)" cx="764.7555" cy="360.1143" stroke="none"/>
    </g>
    <g text-rendering="geometricPrecision" stroke-miterlimit="1.45" shape-rendering="geometricPrecision" transform="matrix(2.0661,0,0,2.0661,-1330.5785,-336.7769)" stroke-linecap="butt">
      <ellipse rx="25.2236" fill="none" ry="15.6554" clip-path="url(#clipPath2)" cx="764.7555" cy="360.1143"/>
      <text x="754.7447" xml:space="preserve" y="364.8282" clip-path="url(#clipPath2)" font-family="sans-serif" stroke="none">011</text>
      <text x="666.6305" xml:space="preserve" y="199.2428" clip-path="url(#clipPath2)" font-family="sans-serif" stroke="none">reset</text>
      <path fill="none" d="M781.6769 206.1387 L821.6846 233.5882" clip-path="url(#clipPath2)"/>
      <path d="M828.2813 238.1142 L821.215 227.2023 L820.8601 233.0225 L815.5576 235.4482 Z" clip-path="url(#clipPath2)" stroke="none"/>
      <text x="800.9944" xml:space="preserve" y="217.4635" clip-path="url(#clipPath2)" font-family="sans-serif" stroke="none">inc</text>
      <path fill="none" d="M701.2296 238.1142 L741.2374 210.6647" clip-path="url(#clipPath2)"/>
      <path d="M747.834 206.1387 L735.1104 208.8048 L740.4128 211.2305 L740.7678 217.0506 Z" clip-path="url(#clipPath2)" stroke="none"/>
      <text x="704.2637" xml:space="preserve" y="222.7064" clip-path="url(#clipPath2)" font-family="sans-serif" stroke="none">inc</text>
      <path fill="none" d="M764.7554 235.2483 L764.7554 218.1842" clip-path="url(#clipPath2)" stroke="silver"/>
      <path fill="silver" d="M764.7554 210.1842 L759.7554 222.1842 L764.7554 219.1842 L769.7554 222.1842 Z" clip-path="url(#clipPath2)" stroke="none"/>
      <path fill="none" d="M845.2027 265.3794 L845.2027 281.2638" clip-path="url(#clipPath2)"/>
      <path d="M845.2027 289.2638 L850.2027 277.2638 L845.2027 280.2638 L840.2027 277.2638 Z" clip-path="url(#clipPath2)" stroke="none"/>
      <text x="852.3594" xml:space="preserve" y="278.079" clip-path="url(#clipPath2)" font-family="sans-serif" stroke="none">inc</text>
      <path fill="none" d="M764.7554 289.2638 L764.7554 274.5591" clip-path="url(#clipPath2)" stroke="silver"/>
      <path fill="silver" d="M764.7554 266.5591 L759.7554 278.5591 L764.7554 275.5591 L769.7554 278.5591 Z" clip-path="url(#clipPath2)" stroke="none"/>
      <path fill="none" d="M684.3082 289.2638 L684.3082 273.3794" clip-path="url(#clipPath2)"/>
      <path d="M684.3082 265.3794 L679.3082 277.3794 L684.3082 274.3794 L689.3082 277.3794 Z" clip-path="url(#clipPath2)" stroke="none"/>
      <text x="663.1224" xml:space="preserve" y="282.0355" clip-path="url(#clipPath2)" font-family="sans-serif" stroke="none">inc</text>
      <path fill="none" d="M828.2813 316.529 L788.2735 343.9785" clip-path="url(#clipPath2)"/>
      <path d="M781.6769 348.5045 L794.4006 345.8384 L789.0981 343.4128 L788.743 337.5926 Z" clip-path="url(#clipPath2)" stroke="none"/>
      <text x="802.8295" xml:space="preserve" y="345.0345" clip-path="url(#clipPath2)" font-family="sans-serif" stroke="none">inc</text>
      <path fill="none" d="M747.834 348.5045 L707.8262 321.055" clip-path="url(#clipPath2)"/>
      <path d="M701.2296 316.529 L708.2958 327.4409 L708.6508 321.6207 L713.9533 319.1951 Z" clip-path="url(#clipPath2)" stroke="none"/>
      <text x="711.6038" xml:space="preserve" y="344.7724" clip-path="url(#clipPath2)" font-family="sans-serif" stroke="none">inc</text>
      <path fill="none" d="M699.3082 194.5289 L731.5319 194.5289" clip-path="url(#clipPath2)"/>
      <path d="M739.5319 194.5289 L727.5319 189.5289 L730.5319 194.5289 L727.5319 199.5289 Z" clip-path="url(#clipPath2)" stroke="none"/>
    </g>
  </g>
</svg>
